<mxfile host="app.diagrams.net" modified="2021-01-12T06:10:07.988Z" agent="5.0 (Macintosh; Intel Mac OS X 11_1_0) AppleWebKit/537.36 (KHTML, like Gecko) Chrome/87.0.4280.88 Safari/537.36" etag="AiAkgqIYy5T7X4ZZUpGw" version="14.1.8" type="github">
  <diagram id="mOKPnjC2bgA8M7GKpCo7" name="Page-1">
    <mxGraphModel dx="946" dy="646" grid="1" gridSize="10" guides="1" tooltips="1" connect="1" arrows="1" fold="1" page="1" pageScale="1" pageWidth="1920" pageHeight="1200" math="0" shadow="0">
      <root>
        <mxCell id="0" />
        <mxCell id="1" parent="0" />
        <mxCell id="A6d9JLvdJddHrv5XPmhk-3" style="edgeStyle=orthogonalEdgeStyle;rounded=0;orthogonalLoop=1;jettySize=auto;html=1;exitX=0.5;exitY=1;exitDx=0;exitDy=0;" edge="1" parent="1" source="A6d9JLvdJddHrv5XPmhk-1" target="A6d9JLvdJddHrv5XPmhk-2">
          <mxGeometry relative="1" as="geometry" />
        </mxCell>
        <mxCell id="A6d9JLvdJddHrv5XPmhk-1" value="线索抓取" style="rounded=1;whiteSpace=wrap;html=1;" vertex="1" parent="1">
          <mxGeometry x="40" y="140" width="110" height="40" as="geometry" />
        </mxCell>
        <mxCell id="A6d9JLvdJddHrv5XPmhk-5" style="edgeStyle=orthogonalEdgeStyle;rounded=0;orthogonalLoop=1;jettySize=auto;html=1;exitX=0.5;exitY=1;exitDx=0;exitDy=0;entryX=0.5;entryY=0;entryDx=0;entryDy=0;" edge="1" parent="1" source="A6d9JLvdJddHrv5XPmhk-2" target="A6d9JLvdJddHrv5XPmhk-4">
          <mxGeometry relative="1" as="geometry" />
        </mxCell>
        <mxCell id="A6d9JLvdJddHrv5XPmhk-2" value="过滤条件" style="rounded=1;whiteSpace=wrap;html=1;" vertex="1" parent="1">
          <mxGeometry x="40" y="210" width="110" height="40" as="geometry" />
        </mxCell>
        <mxCell id="A6d9JLvdJddHrv5XPmhk-4" value="通过qscid业绩接口获取成单列表" style="rounded=1;whiteSpace=wrap;html=1;" vertex="1" parent="1">
          <mxGeometry x="30" y="280" width="130" height="40" as="geometry" />
        </mxCell>
        <mxCell id="A6d9JLvdJddHrv5XPmhk-37" style="edgeStyle=orthogonalEdgeStyle;rounded=0;orthogonalLoop=1;jettySize=auto;html=1;exitX=1;exitY=0.5;exitDx=0;exitDy=0;exitPerimeter=0;entryX=0.5;entryY=0;entryDx=0;entryDy=0;entryPerimeter=0;" edge="1" parent="1" source="A6d9JLvdJddHrv5XPmhk-6" target="A6d9JLvdJddHrv5XPmhk-30">
          <mxGeometry relative="1" as="geometry" />
        </mxCell>
        <mxCell id="A6d9JLvdJddHrv5XPmhk-38" style="edgeStyle=orthogonalEdgeStyle;rounded=0;orthogonalLoop=1;jettySize=auto;html=1;exitX=1;exitY=0.5;exitDx=0;exitDy=0;exitPerimeter=0;" edge="1" parent="1" source="A6d9JLvdJddHrv5XPmhk-6" target="A6d9JLvdJddHrv5XPmhk-31">
          <mxGeometry relative="1" as="geometry" />
        </mxCell>
        <mxCell id="A6d9JLvdJddHrv5XPmhk-39" style="edgeStyle=orthogonalEdgeStyle;rounded=0;orthogonalLoop=1;jettySize=auto;html=1;exitX=1;exitY=0.5;exitDx=0;exitDy=0;exitPerimeter=0;" edge="1" parent="1" source="A6d9JLvdJddHrv5XPmhk-6" target="A6d9JLvdJddHrv5XPmhk-35">
          <mxGeometry relative="1" as="geometry" />
        </mxCell>
        <mxCell id="A6d9JLvdJddHrv5XPmhk-6" value="关系表" style="shape=cylinder3;whiteSpace=wrap;html=1;boundedLbl=1;backgroundOutline=1;size=15;" vertex="1" parent="1">
          <mxGeometry x="330" y="190" width="60" height="80" as="geometry" />
        </mxCell>
        <mxCell id="A6d9JLvdJddHrv5XPmhk-7" value="qscid，&lt;span style=&quot;color: rgb(46 , 46 , 46) ; font-family: &amp;#34;hei&amp;#34; ; font-size: 13px&quot;&gt;assignedtime，accoont&lt;/span&gt;" style="text;html=1;strokeColor=none;fillColor=none;align=center;verticalAlign=middle;whiteSpace=wrap;rounded=0;" vertex="1" parent="1">
          <mxGeometry x="290" y="170" width="220" height="10" as="geometry" />
        </mxCell>
        <mxCell id="A6d9JLvdJddHrv5XPmhk-10" value="初始导入60天数据" style="text;html=1;strokeColor=none;fillColor=none;align=center;verticalAlign=middle;whiteSpace=wrap;rounded=0;" vertex="1" parent="1">
          <mxGeometry x="335" y="140" width="110" height="20" as="geometry" />
        </mxCell>
        <mxCell id="A6d9JLvdJddHrv5XPmhk-28" value="leads_public" style="shape=cylinder3;whiteSpace=wrap;html=1;boundedLbl=1;backgroundOutline=1;size=15;" vertex="1" parent="1">
          <mxGeometry x="52.5" y="560" width="85" height="80" as="geometry" />
        </mxCell>
        <mxCell id="A6d9JLvdJddHrv5XPmhk-30" value="&lt;span style=&quot;color: rgb(46 , 46 , 46) ; font-family: &amp;#34;hei&amp;#34; ; font-size: 13px&quot;&gt;qscid1&lt;br&gt;qscid2&lt;br&gt;&lt;/span&gt;" style="shape=cylinder3;whiteSpace=wrap;html=1;boundedLbl=1;backgroundOutline=1;size=15;" vertex="1" parent="1">
          <mxGeometry x="435" y="340" width="60" height="80" as="geometry" />
        </mxCell>
        <mxCell id="A6d9JLvdJddHrv5XPmhk-31" value="&lt;span style=&quot;color: rgb(46 , 46 , 46) ; font-family: &amp;#34;hei&amp;#34; ; font-size: 13px&quot;&gt;qscid3&lt;/span&gt;&lt;br style=&quot;color: rgb(46 , 46 , 46) ; font-family: &amp;#34;hei&amp;#34; ; font-size: 13px&quot;&gt;&lt;span style=&quot;color: rgb(46 , 46 , 46) ; font-family: &amp;#34;hei&amp;#34; ; font-size: 13px&quot;&gt;qscid4&lt;/span&gt;&lt;span style=&quot;color: rgb(46 , 46 , 46) ; font-family: &amp;#34;hei&amp;#34; ; font-size: 13px&quot;&gt;&lt;br&gt;&lt;/span&gt;" style="shape=cylinder3;whiteSpace=wrap;html=1;boundedLbl=1;backgroundOutline=1;size=15;" vertex="1" parent="1">
          <mxGeometry x="515" y="340" width="60" height="80" as="geometry" />
        </mxCell>
        <mxCell id="A6d9JLvdJddHrv5XPmhk-34" value="更新" style="text;html=1;align=center;verticalAlign=middle;resizable=0;points=[];autosize=1;" vertex="1" parent="1">
          <mxGeometry x="410" y="240" width="40" height="20" as="geometry" />
        </mxCell>
        <mxCell id="A6d9JLvdJddHrv5XPmhk-35" value="&lt;span style=&quot;color: rgb(46 , 46 , 46) ; font-family: &amp;#34;hei&amp;#34; ; font-size: 13px&quot;&gt;qscid5&lt;/span&gt;&lt;br style=&quot;color: rgb(46 , 46 , 46) ; font-family: &amp;#34;hei&amp;#34; ; font-size: 13px&quot;&gt;&lt;span style=&quot;color: rgb(46 , 46 , 46) ; font-family: &amp;#34;hei&amp;#34; ; font-size: 13px&quot;&gt;qscid6&lt;/span&gt;" style="shape=cylinder3;whiteSpace=wrap;html=1;boundedLbl=1;backgroundOutline=1;size=15;" vertex="1" parent="1">
          <mxGeometry x="595" y="340" width="60" height="80" as="geometry" />
        </mxCell>
        <mxCell id="A6d9JLvdJddHrv5XPmhk-40" value="数据表" style="text;html=1;align=center;verticalAlign=middle;resizable=0;points=[];autosize=1;" vertex="1" parent="1">
          <mxGeometry x="385" y="190" width="50" height="20" as="geometry" />
        </mxCell>
        <mxCell id="A6d9JLvdJddHrv5XPmhk-41" value="redis" style="text;html=1;align=center;verticalAlign=middle;resizable=0;points=[];autosize=1;" vertex="1" parent="1">
          <mxGeometry x="445" y="430" width="40" height="20" as="geometry" />
        </mxCell>
        <mxCell id="A6d9JLvdJddHrv5XPmhk-42" value="redis" style="text;html=1;align=center;verticalAlign=middle;resizable=0;points=[];autosize=1;" vertex="1" parent="1">
          <mxGeometry x="525" y="430" width="40" height="20" as="geometry" />
        </mxCell>
        <mxCell id="A6d9JLvdJddHrv5XPmhk-43" value="redis" style="text;html=1;align=center;verticalAlign=middle;resizable=0;points=[];autosize=1;" vertex="1" parent="1">
          <mxGeometry x="605" y="430" width="40" height="20" as="geometry" />
        </mxCell>
        <mxCell id="A6d9JLvdJddHrv5XPmhk-44" value="&lt;span style=&quot;color: rgb(46 , 46 , 46) ; font-family: &amp;#34;hei&amp;#34; ; font-size: 13px&quot;&gt;accoont1&lt;/span&gt;" style="text;html=1;align=center;verticalAlign=middle;resizable=0;points=[];autosize=1;" vertex="1" parent="1">
          <mxGeometry x="430" y="450" width="70" height="20" as="geometry" />
        </mxCell>
        <mxCell id="A6d9JLvdJddHrv5XPmhk-45" value="&lt;span style=&quot;color: rgb(46 , 46 , 46) ; font-family: &amp;#34;hei&amp;#34; ; font-size: 13px&quot;&gt;accoont2&lt;/span&gt;" style="text;html=1;align=center;verticalAlign=middle;resizable=0;points=[];autosize=1;" vertex="1" parent="1">
          <mxGeometry x="510" y="450" width="70" height="20" as="geometry" />
        </mxCell>
        <mxCell id="A6d9JLvdJddHrv5XPmhk-46" value="&lt;span&gt;无归属&lt;/span&gt;" style="text;html=1;align=center;verticalAlign=middle;resizable=0;points=[];autosize=1;" vertex="1" parent="1">
          <mxGeometry x="600" y="450" width="50" height="20" as="geometry" />
        </mxCell>
        <mxCell id="A6d9JLvdJddHrv5XPmhk-49" value="&lt;meta charset=&quot;utf-8&quot;&gt;&lt;span style=&quot;color: rgb(46, 46, 46); font-family: hei; font-size: 13px; font-style: normal; font-weight: 400; letter-spacing: normal; text-align: center; text-indent: 0px; text-transform: none; word-spacing: 0px; background-color: rgb(248, 249, 250); display: inline; float: none;&quot;&gt;qscid1&lt;/span&gt;&lt;br style=&quot;color: rgb(46, 46, 46); font-family: hei; font-size: 13px; font-style: normal; font-weight: 400; letter-spacing: normal; text-align: center; text-indent: 0px; text-transform: none; word-spacing: 0px; background-color: rgb(248, 249, 250);&quot;&gt;&lt;span style=&quot;color: rgb(46, 46, 46); font-family: hei; font-size: 13px; font-style: normal; font-weight: 400; letter-spacing: normal; text-align: center; text-indent: 0px; text-transform: none; word-spacing: 0px; background-color: rgb(248, 249, 250); display: inline; float: none;&quot;&gt;qscid2&lt;/span&gt;" style="text;whiteSpace=wrap;html=1;" vertex="1" parent="1">
          <mxGeometry x="100" y="370" width="60" height="50" as="geometry" />
        </mxCell>
      </root>
    </mxGraphModel>
  </diagram>
</mxfile>
